<svg width="19" height="11" viewBox="0 0 19 11" fill="none" xmlns="http://www.w3.org/2000/svg">
<path fill-rule="evenodd" clip-rule="evenodd" d="M2.5 3H2V2H2.5C3.35234 2 3.98089 2.51901 4.46234 3.12715C4.8961 3.67506 5.27713 4.38149 5.63913 5.05262C5.677 5.12283 5.71466 5.19265 5.75215 5.26186C6.16195 6.01842 6.55783 6.71598 7.01957 7.22745C7.47195 7.72855 7.94115 8 8.5 8H10.5C11.0588 8 11.528 7.72855 11.9804 7.22745C12.4422 6.71598 12.8381 6.01842 13.2479 5.26186C13.2853 5.19265 13.323 5.12283 13.3609 5.05263C13.7229 4.38149 14.1039 3.67507 14.5377 3.12715C15.0191 2.51901 15.6477 2 16.5 2H17V3H16.5C16.1023 3 15.7309 3.23099 15.3217 3.74785C14.9458 4.22265 14.6075 4.84898 14.2342 5.54009C14.1989 5.60555 14.1632 5.67159 14.1271 5.73814C13.7244 6.48158 13.2766 7.28402 12.7227 7.89755C12.1595 8.52145 11.4412 9 10.5 9H8.5C7.55885 9 6.84055 8.52145 6.2773 7.89755C5.72342 7.28402 5.27555 6.48158 4.87285 5.73814C4.83681 5.6716 4.80114 5.60556 4.76578 5.5401C4.39248 4.84898 4.05417 4.22265 3.67829 3.74785C3.26911 3.23099 2.89766 3 2.5 3Z" fill="black"/>
</svg>
