<svg width="19" height="11" viewBox="0 0 19 11" fill="none" xmlns="http://www.w3.org/2000/svg">
<path fill-rule="evenodd" clip-rule="evenodd" d="M7.2479 2.97629C6.50693 2.60581 5.60592 2.90614 5.23543 3.64711L2.94721 8.22357L2.05278 7.77635L4.34101 3.1999C4.95848 1.96495 6.46016 1.46439 7.69511 2.08186C8.15166 2.31014 8.52739 2.67269 8.77181 3.1208L11.1061 7.40027C11.5028 8.12754 12.4139 8.39552 13.1412 7.99883C13.4101 7.85218 13.6276 7.62674 13.7646 7.35281L16.0528 2.77635L16.9472 3.22357L14.659 7.80002C14.4307 8.25657 14.0682 8.6323 13.62 8.87673C12.4079 9.53788 10.8893 9.09124 10.2282 7.87912L7.89392 3.59965C7.74727 3.33079 7.52183 3.11325 7.2479 2.97629Z" fill="black"/>
</svg>
